<svg xmlns="http://www.w3.org/2000/svg" version="1.1" xmlns:xlink="http://www.w3.org/1999/xlink" xmlns:svgjs="http://svgjs.dev/svgjs" width="1000" height="214" viewBox="0 0 1000 214"><g transform="matrix(1,0,0,1,-0.6060441421902283,-0.5612584825808113)"><svg viewBox="0 0 396 85" data-background-color="#001f3f" preserveAspectRatio="xMidYMid meet" height="214" width="1000" xmlns="http://www.w3.org/2000/svg" xmlns:xlink="http://www.w3.org/1999/xlink"><g id="tight-bounds" transform="matrix(1,0,0,1,0.24000651969265618,0.22292977111854384)"><svg viewBox="0 0 395.52 84.55413773311525" height="84.55413773311525" width="395.52"><g><svg viewBox="0 0 673.7609181854234 144.03639127083457" height="84.55413773311525" width="395.52"><g><rect width="5.4220198265456565" height="130.03797976398653" x="258.6251291794389" y="6.999205753424022" fill="#ff4057" opacity="1" stroke-width="0" stroke="transparent" fill-opacity="1" class="rect-o-0" data-fill-palette-color="primary" rx="1%" id="o-0" data-palette-color="#ff4057"></rect></g><g transform="matrix(1,0,0,1,278.2409181854234,7.322683315025969)"><svg viewBox="0 0 395.52 129.39102464078263" height="129.39102464078263" width="395.52"><g id="textblocktransform"><svg viewBox="0 0 395.52 129.39102464078263" height="129.39102464078263" width="395.52" id="textblock"><g><svg viewBox="0 0 395.52 129.39102464078263" height="129.39102464078263" width="395.52"><g transform="matrix(1,0,0,1,0,0)"><svg width="395.52" viewBox="-0.5900012254714966 -37.9900016784668 262.5500183105469 81.9000015258789" height="129.39102464078263" data-palette-color="#ff4057"><svg></svg><svg></svg><g class="wordmark-text-0" data-fill-palette-color="primary" id="text-0"><path xmlns="http://www.w3.org/2000/svg" d="M15.23 1.37v0c-1.807 0-3.453-0.12-4.94-0.36-1.487-0.233-2.92-0.647-4.3-1.24-1.373-0.593-2.533-1.363-3.48-2.31-0.94-0.947-1.69-2.177-2.25-3.69-0.567-1.513-0.85-3.26-0.85-5.24v0c0-0.88 0.263-1.32 0.79-1.32v0h11.13c0.5 0 0.873 0.12 1.12 0.36 0.247 0.247 0.393 0.55 0.44 0.91 0.047 0.353 0.09 0.71 0.13 1.07 0.047 0.36 0.17 0.66 0.37 0.9 0.207 0.247 0.53 0.37 0.97 0.37v0c0.407 0 0.733-0.11 0.98-0.33 0.253-0.22 0.433-0.55 0.54-0.99 0.107-0.44 0.173-0.823 0.2-1.15 0.02-0.32 0.03-0.733 0.03-1.24v0-0.2c-0.013-1.167-0.057-3.427-0.13-6.78-0.073-3.353-0.11-5.973-0.11-7.86v0-8.31c0-0.467 0.34-0.743 1.02-0.83v0c0.527 0 1.31 0.01 2.35 0.03 1.04 0.013 1.82 0.02 2.34 0.02v0c0.78 0 1.937-0.007 3.47-0.02 1.527-0.02 2.683-0.03 3.47-0.03v0h2.29c0.373 0 0.633 0.23 0.78 0.69v0c-0.033 0.293-0.043 0.69-0.03 1.19 0.007 0.507 0 0.907-0.02 1.2v0 1.22c-0.16 5-0.24 9.46-0.24 13.38v0 7.67c0 1.427-0.197 2.753-0.59 3.98-0.387 1.22-0.907 2.26-1.56 3.12-0.653 0.86-1.43 1.637-2.33 2.33-0.907 0.693-1.84 1.25-2.8 1.67-0.96 0.427-1.973 0.777-3.04 1.05-1.067 0.28-2.067 0.473-3 0.58-0.933 0.107-1.85 0.16-2.75 0.16zM35.99-12.16v0c0.06-8.007 0.09-13.98 0.09-17.92v0-0.29c0-0.113-0.013-0.517-0.04-1.21-0.033-0.693-0.05-1.283-0.05-1.77v0c0-1.953 0.16-3.06 0.48-3.32v0c0.087 0 0.21 0.007 0.37 0.02 0.16 0.02 0.283 0.03 0.37 0.03v0c2.733-0.133 5.907-0.2 9.52-0.2v0h3.32c0.127 0.02 0.3 0.073 0.52 0.16 0.22 0.093 0.373 0.14 0.46 0.14v0c0.013 0.793 0.05 2.167 0.11 4.12 0.053 1.953 0.093 3.647 0.12 5.08 0.02 1.433 0.023 2.84 0.01 4.22v0 9.53c0 0.6 0.017 1.087 0.05 1.46 0.033 0.373 0.11 0.813 0.23 1.32 0.12 0.507 0.34 0.883 0.66 1.13 0.32 0.253 0.723 0.38 1.21 0.38v0c0.68 0 1.233-0.287 1.66-0.86 0.42-0.58 0.63-1.253 0.63-2.02v0-8.93c-0.013-1.093 0-2.813 0.04-5.16 0.04-2.34 0.043-4.17 0.01-5.49v0-1.76c0-0.173-0.017-0.443-0.05-0.81-0.033-0.367-0.05-0.65-0.05-0.85v0-1.17c0.053-0.373 0.267-0.6 0.64-0.68v0c3.127 0 7.813 0.033 14.06 0.1v0 0.39h1.08c-0.133 3.467-0.2 7.503-0.2 12.11v0 5.46c0 0.733-0.017 1.857-0.05 3.37-0.033 1.513-0.05 2.637-0.05 3.37v0c0 2.12-0.333 3.993-1 5.62-0.667 1.627-1.547 2.937-2.64 3.93-1.087 0.993-2.403 1.807-3.95 2.44-1.547 0.633-3.11 1.073-4.69 1.32-1.58 0.24-3.28 0.36-5.1 0.36v0c-1.76 0-3.407-0.107-4.94-0.32-1.54-0.22-3.1-0.643-4.68-1.27-1.58-0.627-2.94-1.43-4.08-2.41-1.14-0.973-2.083-2.283-2.83-3.93-0.747-1.647-1.16-3.543-1.24-5.69zM90.92 1.46v0c-1.92-0.08-3.647-0.247-5.18-0.5-1.527-0.247-3.003-0.653-4.43-1.22-1.427-0.56-2.623-1.267-3.59-2.12-0.967-0.853-1.77-1.947-2.41-3.28-0.647-1.34-1.043-2.887-1.19-4.64v0c0-0.313 0.163-0.493 0.49-0.54v0c0.1 0.033 0.263 0.05 0.49 0.05v0c1.347 0 3.397-0.033 6.15-0.1 2.753-0.067 4.803-0.1 6.15-0.1v0c0.347 0 0.617 0.11 0.81 0.33 0.193 0.22 0.35 0.49 0.47 0.81 0.127 0.313 0.273 0.63 0.44 0.95 0.173 0.32 0.467 0.59 0.88 0.81 0.42 0.22 0.953 0.33 1.6 0.33v0c0.8 0 1.503-0.227 2.11-0.68 0.613-0.447 0.92-1.05 0.92-1.81v0c0-0.507-0.26-0.973-0.78-1.4-0.52-0.42-1.21-0.763-2.07-1.03-0.853-0.273-1.667-0.503-2.44-0.69-0.773-0.187-1.567-0.347-2.38-0.48-0.813-0.14-1.283-0.227-1.41-0.26v0c-3.96-1.073-6.807-2.41-8.54-4.01-1.733-1.593-2.6-3.773-2.6-6.54v0c0-1.953 0.36-3.707 1.08-5.26 0.713-1.553 1.65-2.823 2.81-3.81 1.153-0.987 2.52-1.807 4.1-2.46 1.58-0.66 3.173-1.127 4.78-1.4 1.613-0.267 3.283-0.4 5.01-0.4v0c4.573 0 8.22 0.847 10.94 2.54v0c0.987 0.993 1.713 1.747 2.18 2.26 0.467 0.513 0.913 1.11 1.34 1.79 0.433 0.687 0.737 1.36 0.91 2.02 0.167 0.66 0.283 1.47 0.35 2.43v0l-0.88 0.88c-3.333 0.127-7.077 0.19-11.23 0.19v0c-0.52 0-0.94-0.057-1.26-0.17-0.313-0.113-0.523-0.26-0.63-0.44-0.107-0.18-0.213-0.367-0.32-0.56-0.107-0.193-0.203-0.38-0.29-0.56-0.093-0.18-0.28-0.327-0.56-0.44-0.287-0.113-0.667-0.17-1.14-0.17v0c-0.127 0-0.333 0.023-0.62 0.07-0.287 0.047-0.62 0.123-1 0.23-0.387 0.107-0.717 0.27-0.99 0.49-0.28 0.22-0.42 0.477-0.42 0.77v0c0 0.36 0.183 0.687 0.55 0.98 0.367 0.293 0.753 0.503 1.16 0.63 0.407 0.133 0.913 0.277 1.52 0.43 0.6 0.153 0.973 0.253 1.12 0.3v0c3.547 0.9 5.663 1.453 6.35 1.66v0c3.56 1.127 6.083 2.6 7.57 4.42v0c1.367 1.693 2.05 3.817 2.05 6.37v0c0 1.547-0.2 2.957-0.6 4.23-0.4 1.267-0.927 2.34-1.58 3.22-0.647 0.88-1.46 1.66-2.44 2.34-0.973 0.687-1.96 1.233-2.96 1.64-1.007 0.407-2.143 0.75-3.41 1.03-1.267 0.273-2.433 0.47-3.5 0.59-1.067 0.127-2.227 0.22-3.48 0.28zM108.98-29.25v0c0-0.293 0.017-0.727 0.05-1.3 0.033-0.58 0.05-0.977 0.05-1.19v0c0-0.08-0.017-0.373-0.05-0.88-0.033-0.5-0.05-0.94-0.05-1.32v0c0-1.72 0.163-2.58 0.49-2.58v0c0.133 0 0.247 0.017 0.34 0.05v0c3.407 0 8.45-0.043 15.13-0.13 6.68-0.08 11.68-0.12 15-0.12v0c0.833 0 1.36 0.073 1.58 0.22 0.22 0.147 0.33 0.433 0.33 0.86v0 0.68c0 0.847 0.007 2.097 0.02 3.75 0.013 1.647 0.02 2.903 0.02 3.77v0c0 0.847-0.227 1.27-0.68 1.27v0c-0.913 0-2.273-0.017-4.08-0.05-1.807-0.033-3.163-0.05-4.07-0.05v0 26.17c-0.113 0.487-0.39 0.747-0.83 0.78v0c-0.573 0-1.403-0.007-2.49-0.02-1.093-0.02-1.923-0.03-2.49-0.03v0c-0.033 0-0.067 0.017-0.1 0.05v0c-0.72 0-1.727-0.007-3.02-0.02-1.293-0.02-2.257-0.03-2.89-0.03v0h-1.46c-0.327 0.033-0.8 0.05-1.42 0.05v0l-0.98-1.17c0-2.473 0.083-6.15 0.25-11.03 0.16-4.887 0.24-8.567 0.24-11.04v0c0-0.113-0.003-0.3-0.01-0.56-0.007-0.26-0.01-0.47-0.01-0.63 0-0.167-0.013-0.373-0.04-0.62-0.027-0.24-0.067-0.437-0.12-0.59-0.06-0.16-0.13-0.317-0.21-0.47-0.08-0.153-0.19-0.267-0.33-0.34-0.14-0.073-0.307-0.11-0.5-0.11v0h-6.98c-0.46-0.127-0.69-1.25-0.69-3.37z" fill="#ff4057" fill-rule="nonzero" stroke="none" stroke-width="1" stroke-linecap="butt" stroke-linejoin="miter" stroke-miterlimit="10" stroke-dasharray="" stroke-dashoffset="0" font-family="none" font-weight="none" font-size="none" text-anchor="none" style="mix-blend-mode: normal" data-fill-palette-color="primary" opacity="1"></path><path xmlns="http://www.w3.org/2000/svg" d="M2.44 39.03v0-32.62c0-0.553 1.27-0.83 3.81-0.83v0c0.28 0 0.673 0.01 1.18 0.03 0.513 0.013 0.87 0.02 1.07 0.02v0c1.28 0 3.197-0.023 5.75-0.07 2.547-0.047 4.47-0.07 5.77-0.07v0c0.893 0 2.223 0.017 3.99 0.05 1.767 0.027 3.14 0.04 4.12 0.04v0c0.127 0 0.32-0.007 0.58-0.02 0.26-0.013 0.457-0.02 0.59-0.02v0c0.587 0 0.993 0.11 1.22 0.33 0.227 0.22 0.34 0.647 0.34 1.28v0 8.54c-0.947 0.08-1.93 0.133-2.95 0.16-1.027 0.027-2.33 0.047-3.91 0.06-1.58 0.02-2.567 0.03-2.96 0.03v0h-3.36c0 0.307-0.01 0.753-0.03 1.34-0.013 0.587-0.02 1.033-0.02 1.34v0 0.34c0.033 0.067 0.05 0.183 0.05 0.35v0c3.693-0.267 6.817-0.4 9.37-0.4v0c0.767 0 1.447 0.06 2.04 0.18 0.593 0.113 0.89 0.283 0.89 0.51v0 8.15c0 0.72-0.137 1.2-0.41 1.44-0.28 0.247-0.713 0.37-1.3 0.37v0c-0.127 0-0.363-0.017-0.71-0.05-0.34-0.033-0.607-0.05-0.8-0.05v0c-3.307 0.213-6.32 0.343-9.04 0.39v0c0 0.993 0.027 2.49 0.08 4.49 0.047 2.007 0.07 3.507 0.07 4.5v0 3.02c0 0.473-0.05 0.787-0.15 0.94-0.093 0.16-0.337 0.27-0.73 0.33v0c-1.56 0-3.87 0.017-6.93 0.05-3.06 0.033-5.37 0.05-6.93 0.05v0c-0.133-0.193-0.243-0.403-0.33-0.63-0.093-0.233-0.163-0.437-0.21-0.61-0.053-0.18-0.09-0.43-0.11-0.75-0.027-0.313-0.043-0.54-0.05-0.68-0.007-0.14-0.007-0.407 0-0.8 0.007-0.387 0.01-0.63 0.01-0.73zM48.63 43.08h-15.77c0.067-4.733 0.18-8.2 0.34-10.4v0c0-6.833 0.1-13.767 0.3-20.8v0c-0.067-1.367-0.1-2.373-0.1-3.02v0-0.74c-0.067-0.713-0.1-1.297-0.1-1.75v0c0-0.313 0.147-0.59 0.44-0.83v0c2.667 0.193 6.737 0.29 12.21 0.29v0c1.3 0 2.193-0.033 2.68-0.1v0zM54.44 43.13l-1.07-0.58v-11.04c-0.033-4.033 0.097-11.73 0.39-23.09v0-2.01c0-0.353 0.067-0.563 0.2-0.63v0h16.79c0.167 0 0.497 0.62 0.99 1.86 0.5 1.233 1.103 2.823 1.81 4.77 0.707 1.947 1.207 3.283 1.5 4.01v0l3.42 8.94v-9.47c0-0.813 0.02-2.307 0.06-4.48 0.04-2.173 0.05-3.87 0.03-5.09v0c0-0.46 1.303-0.69 3.91-0.69v0c0.813 0 1.93 0.017 3.35 0.05 1.413 0.033 2.283 0.05 2.61 0.05v0h1.85c0.26 0 0.39 0.05 0.39 0.15v0c0.1 4.52 0.15 10.997 0.15 19.43v0 16.94c-0.113 0.427-0.633 0.64-1.56 0.64v0h-0.64c-0.847 0-2.09 0.017-3.73 0.05-1.647 0.033-2.893 0.05-3.74 0.05v0h-7.18c-0.227-0.08-0.697-1.107-1.41-3.08v0c-0.767-2.133-1.907-5.217-3.42-9.25-1.513-4.04-2.36-6.293-2.54-6.76v0c0 0.96-0.007 2.39-0.02 4.29-0.02 1.907-0.03 3.34-0.03 4.3v0c0 0.713 0.017 1.787 0.05 3.22 0.033 1.433 0.05 2.507 0.05 3.22v0 3.08c0 0.747-0.327 1.12-0.98 1.12v0zM90.67 5.93v-0.1zM111.33 43.08h-15.77c0.06-4.733 0.173-8.2 0.34-10.4v0c0-6.833 0.097-13.767 0.29-20.8v0c-0.067-1.367-0.1-2.373-0.1-3.02v0-0.74c-0.06-0.713-0.09-1.297-0.09-1.75v0c0-0.313 0.147-0.59 0.44-0.83v0c2.667 0.193 6.733 0.29 12.2 0.29v0c1.307 0 2.203-0.033 2.69-0.1v0zM131.88 43.91v0c-1.92-0.08-3.643-0.247-5.17-0.5-1.533-0.247-3.01-0.653-4.43-1.22-1.427-0.56-2.623-1.267-3.59-2.12-0.967-0.853-1.773-1.947-2.42-3.28-0.64-1.34-1.033-2.887-1.18-4.64v0c0-0.313 0.163-0.493 0.49-0.54v0c0.093 0.033 0.253 0.05 0.48 0.05v0c1.353 0 3.407-0.033 6.16-0.1 2.747-0.067 4.797-0.1 6.15-0.1v0c0.34 0 0.607 0.11 0.8 0.33 0.2 0.22 0.36 0.49 0.48 0.81 0.12 0.313 0.267 0.63 0.44 0.95 0.173 0.32 0.467 0.59 0.88 0.81 0.413 0.22 0.947 0.33 1.6 0.33v0c0.793 0 1.497-0.227 2.11-0.68 0.613-0.447 0.92-1.05 0.92-1.81v0c0-0.507-0.263-0.973-0.79-1.4-0.52-0.42-1.207-0.763-2.06-1.03-0.853-0.273-1.667-0.503-2.44-0.69-0.773-0.187-1.567-0.347-2.38-0.48-0.813-0.14-1.287-0.227-1.42-0.26v0c-3.953-1.073-6.797-2.41-8.53-4.01-1.733-1.593-2.6-3.773-2.6-6.54v0c0-1.953 0.36-3.707 1.08-5.26 0.713-1.553 1.647-2.823 2.8-3.81 1.16-0.987 2.527-1.807 4.1-2.46 1.58-0.66 3.177-1.127 4.79-1.4 1.613-0.267 3.28-0.4 5-0.4v0c4.573 0 8.22 0.847 10.94 2.54v0c0.993 0.993 1.723 1.747 2.19 2.26 0.46 0.513 0.907 1.11 1.34 1.79 0.433 0.687 0.733 1.36 0.9 2.02 0.173 0.66 0.293 1.47 0.36 2.43v0l-0.88 0.88c-3.34 0.127-7.083 0.19-11.23 0.19v0c-0.52 0-0.94-0.057-1.26-0.17-0.32-0.113-0.53-0.26-0.63-0.44-0.107-0.18-0.213-0.367-0.32-0.56-0.107-0.193-0.203-0.38-0.29-0.56-0.093-0.18-0.283-0.327-0.57-0.44-0.28-0.113-0.657-0.17-1.13-0.17v0c-0.133 0-0.34 0.023-0.62 0.07-0.287 0.047-0.623 0.123-1.01 0.23-0.38 0.107-0.707 0.27-0.98 0.49-0.28 0.22-0.42 0.477-0.42 0.77v0c0 0.36 0.183 0.687 0.55 0.98 0.367 0.293 0.753 0.503 1.16 0.63 0.407 0.133 0.91 0.277 1.51 0.43 0.607 0.153 0.983 0.253 1.13 0.3v0c3.547 0.9 5.66 1.453 6.34 1.66v0c3.567 1.127 6.09 2.6 7.57 4.42v0c1.367 1.693 2.05 3.817 2.05 6.37v0c0 1.547-0.197 2.957-0.59 4.23-0.4 1.267-0.927 2.34-1.58 3.22-0.653 0.88-1.467 1.66-2.44 2.34-0.98 0.687-1.97 1.233-2.97 1.64-1 0.407-2.133 0.75-3.4 1.03-1.273 0.273-2.443 0.47-3.51 0.59-1.067 0.127-2.227 0.22-3.48 0.28zM162.01 43.08h-2.88c-0.453 0-0.983 0.013-1.59 0.04-0.6 0.027-1.063 0.047-1.39 0.06-0.327 0.02-0.697 0.017-1.11-0.01-0.413-0.027-0.727-0.083-0.94-0.17-0.213-0.087-0.437-0.22-0.67-0.4-0.233-0.18-0.403-0.427-0.51-0.74-0.107-0.307-0.197-0.687-0.27-1.14-0.073-0.46-0.11-1.007-0.11-1.64v0c0-3.513 0.063-8.31 0.19-14.39 0.133-6.08 0.2-10.543 0.2-13.39v0c0-3.52 0.18-5.377 0.54-5.57v0h9.08c1.613 0 2.813 0.093 3.6 0.28 0.787 0.187 1.31 0.467 1.57 0.84 0.267 0.38 0.4 0.95 0.4 1.71v0c0 0.233-0.017 0.677-0.05 1.33-0.033 0.66-0.05 1.21-0.05 1.65v0 1.12c0 0.527-0.027 1.31-0.08 2.35-0.047 1.04-0.07 1.82-0.07 2.34v0 0.49c0.033 0.1 0.05 0.23 0.05 0.39v0h0.98c0.273 0 0.697 0.01 1.27 0.03 0.567 0.013 0.99 0.02 1.27 0.02v0c0.747 0 1.3-0.05 1.66-0.15v0-10.15c0-0.813 0.04-1.397 0.12-1.75 0.08-0.347 0.193-0.567 0.34-0.66 0.147-0.087 0.417-0.13 0.81-0.13v0c0.207 0 0.547 0.007 1.02 0.02 0.473 0.02 0.817 0.03 1.03 0.03v0l1.8-0.08c1.22-0.047 2.31-0.07 3.27-0.07v0c4.427 0 6.64 0.49 6.64 1.47v0c0 0.26 0.01 0.633 0.03 1.12 0.013 0.487 0.02 0.86 0.02 1.12v0c0 0.573-0.007 1.403-0.02 2.49-0.02 1.093-0.03 1.923-0.03 2.49v0c0 1.693 0.027 4.217 0.08 7.57 0.047 3.353 0.07 5.877 0.07 7.57v0c0 0.147-0.007 0.33-0.02 0.55-0.02 0.22-0.03 0.363-0.03 0.43v0 1.17c0 1.04 0.017 1.82 0.05 2.34v0 0.54c-0.033 0.067-0.05 0.163-0.05 0.29v0c0 0.86 0.017 2.17 0.05 3.93 0.033 1.76 0.05 3.07 0.05 3.93v0c-0.113 0.587-1.677 0.88-4.69 0.88v0h-10.15l-0.74-1.02v-1.62c0-1.087 0.01-2.697 0.03-4.83 0.013-2.133 0.02-3.743 0.02-4.83v0c0-0.373-0.043-0.63-0.13-0.77-0.093-0.14-0.277-0.21-0.55-0.21v0h-0.88c-1.107 0-2.117 0.067-3.03 0.2v0c0 1.347-0.017 3.377-0.05 6.09-0.027 2.707-0.04 4.743-0.04 6.11v0c-0.2 0.487-2.237 0.73-6.11 0.73zM192.97 41.57v0-0.93c0-2.78 0.033-6.89 0.1-12.33 0.06-5.433 0.09-9.54 0.09-12.32v0-10.11h28.42v8.01c0 0.047 0 0.167 0 0.36 0 0.193 0 0.323 0 0.39 0 0.067-0.007 0.187-0.02 0.36-0.02 0.167-0.05 0.283-0.09 0.35-0.04 0.067-0.097 0.16-0.17 0.28-0.073 0.12-0.16 0.207-0.26 0.26-0.093 0.047-0.223 0.09-0.39 0.13-0.16 0.04-0.337 0.06-0.53 0.06v0h-0.69c-4.213 0-8.053-0.063-11.52-0.19v0c-0.033 0.26-0.087 0.663-0.16 1.21-0.073 0.54-0.13 1.02-0.17 1.44-0.04 0.413-0.06 0.813-0.06 1.2v0h11.62c0.487 0 0.813 0.067 0.98 0.2 0.16 0.133 0.24 0.343 0.24 0.63v0c0 0.087-0.007 0.22-0.02 0.4-0.02 0.173-0.03 0.303-0.03 0.39v0c0 0.78 0.027 1.933 0.08 3.46 0.047 1.533 0.07 2.69 0.07 3.47v0c-0.047 0.327-0.177 0.49-0.39 0.49v0c-0.1 0-0.183-0.033-0.25-0.1v0c-5.14 0.26-8.947 0.39-11.42 0.39v0h-0.64v3.52c1.453 0 3.55-0.067 6.29-0.2 2.74-0.127 4.793-0.19 6.16-0.19v0c1.08 0 1.7 0.227 1.86 0.68v0 1.86c0 0.78 0.017 1.933 0.05 3.46 0.033 1.533 0.05 2.69 0.05 3.47v0c0 0.813-0.327 1.22-0.98 1.22v0c-0.847 0-2.147-0.007-3.9-0.02-1.76-0.02-3.097-0.03-4.01-0.03v0c-2.34 0-5.693 0.06-10.06 0.18-4.36 0.127-7.517 0.197-9.47 0.21v0l-0.68-0.78c-0.067-0.453-0.1-0.747-0.1-0.88zM225.2 41.08v-34.47c0-0.18 0.1-0.34 0.3-0.48 0.207-0.133 0.503-0.237 0.89-0.31 0.393-0.073 0.783-0.137 1.17-0.19 0.393-0.047 0.863-0.077 1.41-0.09 0.547-0.02 0.997-0.03 1.35-0.03 0.36 0 0.773 0.003 1.24 0.01 0.46 0.013 0.73 0.02 0.81 0.02v0h2.74c0.533 0 1.287-0.017 2.26-0.05 0.967-0.033 1.677-0.05 2.13-0.05v0c7.767 0 13.317 1.333 16.65 4v0l0.88 0.78c0.28 0.26 0.59 0.6 0.93 1.02 0.34 0.413 0.76 1.04 1.26 1.88 0.493 0.833 0.937 1.74 1.33 2.72 0.387 0.973 0.72 2.177 1 3.61 0.273 1.433 0.41 2.917 0.41 4.45v0c0 2.373-0.323 4.593-0.97 6.66-0.653 2.067-1.547 3.857-2.68 5.37-1.127 1.513-2.453 2.82-3.98 3.92-1.52 1.1-3.167 1.923-4.94 2.47-1.773 0.54-3.603 0.81-5.49 0.81v0h-0.78c-0.7 0-1.743-0.017-3.13-0.05-1.38-0.027-2.42-0.04-3.12-0.04v0c-4.087 0-7.783 0.063-11.09 0.19v0c-0.387-0.78-0.58-1.497-0.58-2.15zM239.55 34.64v0c0.98 0 1.86-0.11 2.64-0.33 0.78-0.22 1.44-0.51 1.98-0.87 0.533-0.36 1.003-0.817 1.41-1.37 0.407-0.553 0.73-1.12 0.97-1.7 0.233-0.587 0.42-1.26 0.56-2.02 0.133-0.753 0.227-1.47 0.28-2.15 0.047-0.673 0.07-1.427 0.07-2.26v0-1.51c0-2.993-0.593-5.203-1.78-6.63-1.187-1.42-3.263-2.173-6.23-2.26v0c-0.08 0.18-0.21 0.427-0.39 0.74-0.18 0.307-0.31 0.55-0.39 0.73v0 1.17c0 0.247-0.007 0.88-0.02 1.9v0c-0.213 10.907 0.087 16.427 0.9 16.56z" fill="#dcdcdc" fill-rule="nonzero" stroke="none" stroke-width="1" stroke-linecap="butt" stroke-linejoin="miter" stroke-miterlimit="10" stroke-dasharray="" stroke-dashoffset="0" font-family="none" font-weight="none" font-size="none" text-anchor="none" style="mix-blend-mode: normal" data-fill-palette-color="secondary" opacity="1"></path></g></svg></g></svg></g></svg></g></svg></g><g><svg viewBox="0 0 244.43135999999998 144.03639127083457" height="144.03639127083457" width="244.43135999999998"><g><svg xmlns:x="http://ns.adobe.com/Extensibility/1.0/" xmlns:i="http://ns.adobe.com/AdobeIllustrator/10.0/" xmlns:graph="http://ns.adobe.com/Graphs/1.0/" xmlns="http://www.w3.org/2000/svg" xmlns:xlink="http://www.w3.org/1999/xlink" version="1.1" x="0" y="0" viewBox="210.99900817871094 225.48199462890625 90.00099182128906 53.035003662109375" enable-background="new 206 206 100 100" xml:space="preserve" height="144.03639127083457" width="244.43135999999998" class="icon-icon-0" data-fill-palette-color="accent" id="icon-0"><g fill="#dcdcdc" data-fill-palette-color="accent"><path d="M281.714 239.946c-5.711 0-10.842 2.483-14.373 6.429h-22.682c-3.532-3.945-8.662-6.429-14.374-6.429-10.651 0-19.286 8.635-19.286 19.286s8.635 19.285 19.286 19.285c5.711 0 10.842-2.483 14.374-6.429h22.682c3.531 3.945 8.662 6.429 14.373 6.429 10.651 0 19.286-8.634 19.286-19.285S292.365 239.946 281.714 239.946zM239.929 262.446H233.5v6.429h-6.429v-6.429h-6.428v-6.428h6.428v-6.429h6.429v6.429h6.429V262.446zM281.714 249.589c1.775 0 3.215 1.439 3.215 3.214s-1.439 3.214-3.215 3.214c-1.774 0-3.214-1.439-3.214-3.214S279.939 249.589 281.714 249.589zM275.286 262.446c-1.775 0-3.215-1.438-3.215-3.214s1.439-3.214 3.215-3.214c1.774 0 3.214 1.439 3.214 3.214S277.061 262.446 275.286 262.446zM281.714 268.875c-1.774 0-3.214-1.439-3.214-3.214 0-1.775 1.439-3.215 3.214-3.215 1.775 0 3.215 1.439 3.215 3.215C284.929 267.436 283.489 268.875 281.714 268.875zM288.143 262.446c-1.774 0-3.214-1.438-3.214-3.214s1.439-3.214 3.214-3.214c1.775 0 3.215 1.439 3.215 3.214S289.918 262.446 288.143 262.446z" fill="#dcdcdc" data-fill-palette-color="accent"></path><path d="M272.071 228.696v-3.214c-9.748 0-17.678 7.931-17.678 17.679h3.214C257.607 235.185 264.096 228.696 272.071 228.696z" fill="#dcdcdc" data-fill-palette-color="accent"></path></g></svg></g></svg></g></svg></g><defs></defs></svg><rect width="395.52" height="84.55413773311525" fill="none" stroke="none" visibility="hidden"></rect></g></svg></g></svg>